HIERARCHY
ROOT root
{
	OFFSET 0.000000 0.000000 0.000000
	CHANNELS 6 Xposition Yposition Zposition Zrotation Yrotation Xrotation
	JOINT lhip
	{
		OFFSET 0.058581 -0.082280 -0.017664
		CHANNELS 3 Zrotation Yrotation Xrotation
		JOINT lknee
		{
			OFFSET 0.043451 -0.386469 0.008037
			CHANNELS 3 Zrotation Yrotation Xrotation
			JOINT lankle
			{
				OFFSET -0.014790 -0.426874 -0.037428
				CHANNELS 3 Zrotation Yrotation Xrotation
				JOINT ltoe
				{
					OFFSET 0.041054 -0.060286 0.122042
					CHANNELS 3 Zrotation Yrotation Xrotation
					End Site
					{
						OFFSET 0.000000 0.000000 0.000000
					}
				}
			}
		}
	}
	JOINT rhip
	{
		OFFSET -0.060310 -0.090513 -0.013543
		CHANNELS 3 Zrotation Yrotation Xrotation
		JOINT rknee
		{
			OFFSET -0.043257 -0.383688 -0.004843
			CHANNELS 3 Zrotation Yrotation Xrotation
			JOINT rankle
			{
				OFFSET 0.019056 -0.420046 -0.034562
				CHANNELS 3 Zrotation Yrotation Xrotation
				JOINT rtoe
				{
					OFFSET -0.034840 -0.062106 0.130323
					CHANNELS 3 Zrotation Yrotation Xrotation
					End Site
					{
						OFFSET 0.000000 0.000000 0.000000
					}
				}
			}
		}
	}
	JOINT lowerback
	{
		OFFSET 0.004439 0.124404 -0.038385
		CHANNELS 3 Zrotation Yrotation Xrotation
		JOINT upperback
		{
			OFFSET 0.004488 0.137956 0.026820
			CHANNELS 3 Zrotation Yrotation Xrotation
			JOINT chest
			{
				OFFSET -0.002265 0.056032 0.002855
				CHANNELS 3 Zrotation Yrotation Xrotation
				JOINT lowerneck
				{
					OFFSET -0.013390 0.211636 -0.033468
					CHANNELS 3 Zrotation Yrotation Xrotation
					JOINT upperneck
					{
						OFFSET 0.010113 0.088937 0.050410
						CHANNELS 3 Zrotation Yrotation Xrotation
						End Site
						{
							OFFSET 0.000000 0.000000 0.000000
						}
					}
				}
				JOINT lclavicle
				{
					OFFSET 0.071702 0.114000 -0.018898
					CHANNELS 3 Zrotation Yrotation Xrotation
					JOINT lshoulder
					{
						OFFSET 0.122921 0.045205 -0.019046
						CHANNELS 3 Zrotation Yrotation Xrotation
						JOINT lelbow
						{
							OFFSET 0.255332 -0.015649 -0.022946
							CHANNELS 3 Zrotation Yrotation Xrotation
							JOINT lwrist
							{
								OFFSET 0.265709 0.012698 -0.007375
								CHANNELS 3 Zrotation Yrotation Xrotation
								End Site
								{
									OFFSET 0.000000 0.000000 0.000000
								}
							}
						}
					}
				}
				JOINT rclavicle
				{
					OFFSET -0.082954 0.112472 -0.023707
					CHANNELS 3 Zrotation Yrotation Xrotation
					JOINT rshoulder
					{
						OFFSET -0.113228 0.046853 -0.008472
						CHANNELS 3 Zrotation Yrotation Xrotation
						JOINT relbow
						{
							OFFSET -0.260127 -0.014369 -0.031269
							CHANNELS 3 Zrotation Yrotation Xrotation
							JOINT rwrist
							{
								OFFSET -0.269108 0.006794 -0.006027
								CHANNELS 3 Zrotation Yrotation Xrotation
								End Site
								{
									OFFSET 0.000000 0.000000 0.000000
								}
							}
						}
					}
				}
			}
		}
	}
}
MOTION
Frames: 14
Frame Time: 0.033333
-2.723880 0.656704 0.938046 82.809826 -4.105107 105.356713 4.066065 -1.845355 -47.475191 -9.782352 18.443377 30.275128 -1.917601 7.931655 -6.783821 0.000000 -0.000000 0.000000 -2.133745 -3.379363 -0.375423 -2.322430 8.499023 49.450630 10.449385 -3.786762 21.703623 0.000000 -0.000000 0.000000 -2.764693 10.700139 18.019503 -1.286222 0.811967 -6.065976 0.119614 4.150575 -3.026962 -2.593579 -8.722666 -16.705272 5.252088 -0.306603 -8.354098 -17.831591 11.303256 5.852315 -49.313320 29.055685 7.706200 -108.764416 -75.852170 126.648931 23.355989 -10.041405 -21.519623 15.234766 4.602550 -1.625175 62.709151 6.481808 15.615558 -152.451993 73.045151 -137.506671 -12.397182 15.288172 -12.705726 
-2.612621 0.658308 0.923754 85.607730 -5.078519 105.079353 0.529933 -6.001657 -41.056062 -11.097882 12.482311 32.826855 6.801456 8.087600 -14.186154 0.000000 -0.000000 0.000000 -2.244181 -1.421015 -7.842700 -1.007084 4.401666 63.401822 7.741918 -5.587097 13.913409 0.000000 -0.000000 0.000000 -2.871723 7.972062 16.701132 -1.108256 1.555866 -7.025249 -0.710252 2.908995 -0.933037 -1.254228 -7.258670 -18.304956 3.449428 -1.412151 -6.781902 -21.024095 12.517495 4.152538 -49.956041 22.046265 9.514449 -112.552291 -79.575051 130.628623 20.773360 -11.256022 -21.219536 18.865949 0.668732 -1.767722 62.081823 2.259380 17.119774 -125.240517 80.800790 -111.521028 -11.267509 14.967908 -12.272191 
-2.504529 0.660958 0.904416 87.608247 -5.648869 104.426536 -2.722665 -8.083705 -35.407982 -11.369116 9.756367 38.322532 12.446106 13.742848 -26.547138 0.000000 -0.000000 0.000000 -3.766591 0.291074 -17.813292 0.729931 0.524495 77.450603 4.623618 -10.334499 7.230252 0.000000 -0.000000 0.000000 -2.656556 4.709538 16.585006 -1.285262 2.039124 -9.020138 -1.396834 1.973442 1.949147 -0.309524 -7.174503 -21.262194 2.439654 -0.003582 -4.205092 -25.463010 12.895338 1.206426 -49.679305 13.866767 11.843590 -123.594465 -83.333687 141.140139 22.075619 -9.773987 -19.154699 22.775893 -2.500408 -2.442817 59.688993 -1.550270 18.553531 -48.933658 79.708556 -38.074788 -11.210794 14.809428 -9.399137 
-2.372273 0.660299 0.889025 91.907854 -5.981843 102.052687 -6.391637 -8.771745 -23.577043 -11.159485 2.347207 39.037472 13.037424 16.664164 -33.858873 0.000000 -0.000000 0.000000 -6.144582 0.090859 -32.852425 2.398093 -3.906957 90.969659 3.925786 -13.865890 1.263389 0.000000 -0.000000 0.000000 -2.410889 -0.906776 20.749656 -1.190523 1.730437 -10.078612 -1.509635 0.782267 1.948393 0.397987 -6.333298 -23.921278 1.797034 1.532479 -3.950470 -29.914166 9.671911 -2.176192 -50.677868 1.742564 14.784405 -179.068885 -84.773089 -165.823873 21.810574 -7.758987 -22.291970 25.750800 -3.222063 -1.120629 56.945188 -6.189472 18.961542 -26.684895 65.335765 -20.437972 -15.691918 14.904155 -6.847174 
-2.288216 0.659677 0.886905 94.309659 -5.278331 100.163085 -7.781073 -5.788382 -13.554245 -10.851421 -4.620899 35.606420 11.942294 17.788553 -35.347334 0.000000 -0.000000 0.000000 -6.931251 -0.978375 -41.395068 1.969771 -5.390883 94.830208 4.559292 -13.644843 -1.681242 0.000000 -0.000000 0.000000 -1.438240 -3.977654 23.427010 -1.375802 2.208230 -11.487182 -0.936555 -0.335864 2.305866 -0.395511 -6.312020 -24.218786 2.330263 1.966788 -4.019313 -30.073632 6.208533 -2.725426 -52.641261 -5.630001 15.686425 166.506692 -81.449378 -150.329088 23.207181 -8.894689 -22.689351 25.790629 -4.057420 -0.010957 55.304759 -11.275666 17.088516 -23.461921 63.628383 -17.765430 -18.919484 16.023609 -7.151049 
-2.171735 0.658097 0.892946 98.673935 -3.546962 99.388298 -5.616081 -2.164275 -1.310459 -9.769507 -14.398295 28.847691 7.902103 16.295567 -32.991366 0.000000 -0.000000 0.000000 -8.117886 -2.922884 -52.072139 0.151736 -8.214298 93.521087 5.550462 -12.215008 -5.008745 0.000000 -0.000000 0.000000 0.569381 -8.867440 23.617384 -0.434847 2.038123 -12.729188 0.249318 -2.299085 2.463180 -2.155181 -5.806616 -22.814635 2.388937 3.675954 -4.050848 -27.879243 4.066453 -3.227570 -56.672685 -13.328268 17.584888 166.557436 -73.670777 -149.339496 24.750907 -8.825943 -23.949637 23.065034 -7.579784 0.309906 51.689316 -18.085052 15.850559 -13.397909 69.125085 -6.737535 -17.851473 16.650737 -8.105031 
-2.048981 0.655693 0.908847 101.948435 -1.336668 100.590886 -0.650380 -1.153818 8.164812 -7.992429 -21.183715 21.176897 0.503680 13.763982 -22.788048 0.000000 -0.000000 0.000000 -9.824389 -3.723889 -60.117954 -1.017575 -12.038513 84.744646 6.260062 -10.986698 -7.002772 0.000000 -0.000000 0.000000 3.590883 -13.941228 20.538127 0.899566 1.556095 -12.412501 0.904542 -3.511791 1.703039 -3.402244 -3.520288 -21.697721 1.610908 5.414437 -3.270538 -25.270239 4.587999 -3.452676 -58.084384 -17.868162 19.380219 171.065515 -64.735009 -153.911921 24.500797 -9.870665 -31.191760 19.435084 -10.746293 1.965736 47.783280 -21.697373 15.194203 3.431721 73.514990 12.225196 -16.447085 17.313647 -10.075308 
-1.920067 0.651074 0.930728 101.138847 0.318470 101.808354 3.853229 1.942326 15.164525 -5.449183 -22.310051 13.291090 -9.111295 12.410775 0.569920 0.000000 -0.000000 0.000000 -11.174784 -1.858196 -64.079550 -1.376908 -14.611549 70.276027 6.556019 -7.624443 -6.746136 0.000000 -0.000000 0.000000 5.493736 -16.749821 17.016367 1.585677 2.407787 -9.830251 1.166859 -3.403383 0.009096 -4.305163 0.463095 -21.044031 0.984171 4.631969 -3.882106 -24.091173 5.528037 -3.878326 -56.526049 -19.614276 20.289970 175.228397 -57.596712 -155.608327 22.522223 -11.955954 -31.816410 18.052745 -12.475285 4.993728 45.991819 -22.065785 12.709973 11.552671 74.169427 22.681687 -16.182983 17.672693 -11.204342 
-1.789827 0.648217 0.947661 99.127921 0.171335 102.637274 3.958470 2.435807 19.466641 -3.418943 -21.655674 9.275349 -5.350518 12.590105 20.617689 0.000000 -0.000000 0.000000 -12.434725 -0.438722 -64.048129 0.302559 -15.403472 53.498755 7.535767 -6.587107 -3.720943 0.000000 -0.000000 0.000000 5.704440 -18.131654 14.620902 1.290761 3.016891 -8.315378 1.619073 -2.758477 -1.342354 -5.509481 -1.007629 -18.887472 2.289395 7.629139 -5.810499 -23.289424 6.410677 -2.910345 -55.318243 -19.362159 20.185260 178.662964 -54.206737 -156.204621 22.917158 -13.458708 -28.276143 16.249976 -11.906243 7.391190 48.416305 -21.971735 11.114303 2.492591 72.592939 14.072710 -14.070100 17.928039 -8.642320 
-1.630463 0.644902 0.956628 97.235454 -1.112970 101.789411 -0.012529 -0.110582 17.690210 -5.996182 -18.145380 25.220827 -2.793251 14.593786 15.542845 0.000000 -0.000000 0.000000 -11.385162 -0.323578 -58.852201 0.030589 -17.139805 37.580152 9.121083 -9.225351 -0.606765 0.000000 -0.000000 0.000000 5.461625 -16.195701 14.383587 0.616446 1.969411 -8.342506 0.996527 -2.731426 -0.306123 -5.533294 -1.401259 -19.927129 2.128610 7.860398 -4.837565 -22.734029 7.183141 -1.906831 -55.499188 -17.556627 20.967578 -178.452356 -57.601081 -159.029647 21.618662 -12.932313 -29.409877 17.553371 -11.883378 5.992678 50.096876 -19.707261 11.325303 -8.657394 68.308368 1.929944 -13.697026 16.954466 -8.088950 
-1.502765 0.640961 0.952472 95.485305 -1.936080 100.114429 -2.088053 -0.944041 14.485396 -8.759339 -15.113798 40.174633 -2.098764 11.473523 10.779945 0.000000 -0.000000 0.000000 -7.844403 -1.074115 -54.309336 -1.045793 -17.280226 35.716369 9.737568 -9.415393 1.712642 0.000000 -0.000000 0.000000 4.779547 -12.975488 15.420958 0.572557 1.710165 -7.453528 0.490992 -3.194875 -0.588134 -5.556485 -1.437823 -19.350466 0.985845 6.966137 -4.806756 -23.994888 7.063240 -0.533583 -55.733798 -14.763275 20.740379 -176.155302 -64.714282 -162.548049 19.175828 -12.451159 -29.197670 19.986987 -11.073195 3.950829 50.484791 -17.761913 11.432748 -14.720134 64.691953 -5.178430 -12.782439 16.212469 -6.884235 
-1.376581 0.633026 0.937860 93.383241 -1.046241 99.164723 -0.552711 -0.822499 8.082427 -10.299399 -8.997046 54.497343 0.253269 11.568360 5.161019 0.000000 -0.000000 0.000000 -4.329803 1.423407 -49.629934 0.977357 -14.772305 38.539460 2.785729 -8.418332 0.665881 0.000000 -0.000000 0.000000 4.577475 -10.573309 16.237055 1.136962 2.561877 -7.590604 0.428335 -2.769046 -0.298231 -5.541264 -1.928916 -19.444754 0.365519 6.450336 -3.528566 -26.059918 7.319977 -0.345194 -55.502721 -10.863904 19.775384 -169.998996 -73.472033 -168.822616 18.075960 -12.025046 -26.448066 22.715814 -9.462808 2.816110 49.731414 -14.586187 10.892442 -16.712512 61.381437 -6.981553 -12.371082 15.201032 -8.238753 
-1.254999 0.624417 0.916088 91.356476 0.036363 98.349288 2.292234 -0.168716 -0.190563 -9.618334 -2.855369 67.428669 2.920763 12.629911 -3.378270 0.000000 -0.000000 0.000000 -0.319085 4.220849 -45.228097 0.545780 -12.332919 47.520320 -4.789847 -12.912623 -14.325603 0.000000 -0.000000 0.000000 4.126614 -8.593331 17.812240 1.580391 3.549107 -8.404217 0.324174 -1.854847 0.035067 -4.397402 -1.526092 -21.063686 -0.416975 5.128508 -0.827265 -27.851657 7.526959 -0.691461 -54.306496 -6.772798 17.972711 -150.124125 -82.204015 170.508877 16.343148 -10.862306 -26.426691 25.909302 -6.345657 1.876902 48.540238 -11.045680 10.969134 -18.235165 57.669478 -9.023276 -14.079058 14.385430 -10.252107 
-1.140561 0.619152 0.899635 89.037607 0.498290 97.999143 5.129725 -1.494116 -11.379170 -8.135596 4.074152 76.899490 3.949176 13.186321 -9.990894 0.000000 -0.000000 0.000000 1.427358 7.584038 -40.200390 0.592970 -10.603665 54.156437 -4.988208 -16.193810 -23.340629 0.000000 -0.000000 0.000000 3.690173 -6.039303 19.515540 1.789966 4.401315 -7.056199 -0.230565 -0.689030 -1.424708 -3.318675 -0.832595 -23.660699 -1.542980 3.110284 0.550047 -29.763645 6.020920 0.215462 -52.597542 -3.392854 16.894007 -25.958619 -85.988440 43.191169 17.938424 -10.348167 -26.578243 29.100328 -1.756757 1.602292 47.425580 -6.297745 12.517357 -23.171520 53.715602 -13.840496 -15.772440 14.335294 -9.902901 
